# AST/ASF file generated using VICON BodyLanguage
# -----------------------------------------------
:version 1.10
:name VICON
:units
  mass 1.0
  length 0.45
  angle deg
:documentation
   .ast/.asf automatically generated from VICON data using
   VICON BodyBuilder and BodyLanguage model FoxedUp or BRILLIANT.MOD
:root
   order TX TY TZ RX RY RZ
   axis XYZ
   position 0 0 0  
   orientation 0 0 0 
:bonedata
  begin
     id 1 
     name lhipjoint
     direction 0.567149 -0.783011 0.255413 
     length 2.28399 
     axis 0 0 0  XYZ
  end
  begin
     id 2 
     name lfemur
     direction 0.34202 -0.939693 0  
     length 7.34031  
     axis 0 0 20  XYZ
    dof rx ry rz
    limits (-160.0 20.0)
           (-70.0 70.0)
           (-60.0 70.0)
  end
  begin
     id 3 
     name ltibia
     direction 0.34202 -0.939693 0   
     length 6.9833   
     axis 0 0 20   XYZ
    dof rx
    limits (-10.0 170.0)
  end
  begin
     id 4 
     name lfoot
     direction 0.136498 -0.375025 0.91691   
     length 2.33665   
     axis -90 7.62852e-016 20   XYZ
    dof rx rz
    limits (-45.0 90.0)
           (-70.0 20.0)
  end
  begin
     id 5 
     name ltoes
     direction 1.5367e-011 -4.21617e-011 1   
     length 1.15039   
     axis -90 7.62852e-016 20   XYZ
    dof rx
    limits (-90.0 20.0)
  end
  begin
     id 6 
     name rhipjoint
     direction -0.602854 -0.758518 0.247423   
     length 2.35775  
     axis 0 0 0  XYZ 
  end
  begin
     id 7 
     name rfemur
     direction -0.34202 -0.939693 0   
     length 7.43932   
     axis 0 0 -20   XYZ
    dof rx ry rz
    limits (-160.0 20.0)
           (-70.0 70.0)
           (-70.0 60.0)
  end
  begin
     id 8 
     name rtibia
     direction -0.34202 -0.939693 0   
     length 7.11893   
     axis 0 0 -20   XYZ
    dof rx
    limits (-10.0 170.0)
 end
 begin
     id 9 
     name rfoot
     direction -0.131771 -0.362037 0.922803   
     length 2.53019  
     axis -90 -7.62852e-016 -20   XYZ
    dof rx rz
    limits (-45.0 90.0)
           (-20.0 70.0)
  end
  begin
     id 10 
     name rtoes
     direction -1.53733e-011 -4.21932e-011 1   
     length 1.24596   
     axis -90 -7.62852e-016 -20   XYZ
    dof rx
    limits (-90.0 20.0)
  end
  begin
     id 11 
     name lowerback
     direction 0.0235427 0.999023 -0.0374125   
     length 2.21768   
     axis 0 0 0   XYZ
    dof rx ry rz
    limits (-20.0 45.0)
           (-30.0 30.0)
           (-30.0 30.0)
  end
  begin
     id 12 
     name upperback
     direction 0.0302156 0.996818 -0.073759   
     length 2.20352   
     axis 0 0 0   XYZ
    dof rx ry rz
    limits (-20.0 45.0)
           (-30.0 30.0)
           (-30.0 30.0)
  end
  begin
     id 13 
     name thorax
     direction 0.0187169 0.998235 -0.0563532   
     length 2.22103   
     axis 0 0 0   XYZ
    dof rx ry rz
    limits (-20.0 45.0)
           (-30.0 30.0)
           (-30.0 30.0)
  end
  begin
     id 14 
     name lowerneck
     direction -0.119528 0.987423 0.103481   
     length 1.72948   
     axis 0 0 0   XYZ
    dof rx ry rz
    limits (-20.0 45.0)
           (-30.0 30.0)
           (-30.0 30.0)
  end
  begin
     id 15 
     name upperneck
     direction 0.248049 0.963095 -0.104496   
     length 1.74979   
     axis 0 0 0   XYZ
    dof rx ry rz
    limits (-20.0 45.0)
           (-30.0 30.0)
           (-30.0 30.0)
  end
  begin
     id 16
     name head
     direction 0.0903589 0.994284 -0.056876  
     length 1.78268  
     axis 0 0 0   XYZ
    dof rx ry rz
    limits (-20.0 45.0)
           (-30.0 30.0)
           (-30.0 30.0)
  end
  begin
     id 17 
     name lclavicle
     direction 0.946008 0.242039 -0.215608  
     length 3.80783  
     axis 0 0 0   XYZ
    dof ry rz
    limits (-20.0 10.0)
           (0.0 20.0)
  end
  begin
     id 18 
     name lhumerus
     direction 1 -4.48991e-011 -2.25695e-027   
     length 4.83125   
     axis 180 -30 -90   XYZ
    dof rx ry rz
    limits (-60.0 90.0)
           (-90.0 90.0)
           (-90.0 90.0)
  end
  begin
     id 19
     name lradius
     direction 0.999991 0.00366712 -0.00211721   
     length 3.00391   
     axis 180 -30 -90   XYZ
    dof rx
    limits (-10.0 170.0)
  end
  begin
     id 20
     name lwrist
     direction 0.999991 0.00393016 -0.00141978   
     length 1.50195   
     axis -1.00488e-014 90 90   XYZ
    dof ry
    limits (-180.0 0.0)
 end
  begin
     id 21 
     name lhand
     direction 1 -4.49123e-011 2.72098e-026   
     length 1.2717   
     axis -1.73687e-014 90 90   XYZ
    dof rx rz
    limits (-90.0 90.0)
           (-45.0 45.0)
  end
  begin
     id 22 
     name lfingers
     direction 1 -4.48678e-011 5.4479e-026   
     length 1.02528   
     axis -3.47372e-014 90 90   XYZ
    dof rx
    limits (0.0 90.0)
  end
  begin
     id 23
     name lthumb
     direction 0.707107 -6.34851e-011 0.707107   
     length 1.4721   
     axis -90 45 -1.62303e-014   XYZ
    dof rx rz
    limits (-45.0 45.0)
           (-45.0 45.0)
  end
  begin
     id 24 
     name rclavicle
     direction -0.981723 0.189447 -0.0181673   
     length 3.74989  
     axis 0 0 0   XYZ 
    dof ry rz
    limits (-10.0 20.0)
           (-20.0 0.0)
  end
  begin
     id 25 
     name rhumerus
     direction -1 -4.48985e-011 2.38206e-027  
     length 4.61118   
     axis 180 30 90   XYZ
    dof rx ry rz
    limits (-90.0 60.0)
           (-90.0 90.0)
           (-90.0 90.0)
  end
  begin
     id 26 
     name rradius
     direction -1 -4.48977e-011 7.41019e-027   
     length 2.91491   
     axis 180 30 90   XYZ
    dof rx
    limits (-10.0 170.0)
  end
  begin
     id 27 
     name rwrist
     direction -1 -4.48549e-011 1.3624e-026   
     length 1.45745   
     axis -1.00488e-014 -90 -90   XYZ
    dof ry
    limits (-180.0 0.0)
  end
  begin
     id 28
     name rhand
     direction -1 -4.49107e-011 2.72109e-026   
     length 1.30769   
     axis -1.73687e-014 -90 -90   XYZ
    dof rx rz
    limits (-90.0 90.0)
           (-45.0 45.0)
  end
  begin
     id 29
     name rfingers
     direction -1 -4.48919e-011 5.44468e-026   
     length 1.05429   
     axis -3.47372e-014 -90 -90   XYZ
    dof rx
    limits (0.0 90.0)
  end
  begin
     id 30
     name rthumb
     direction -0.707107 -6.35315e-011 0.707107   
     length 1.51376   
     axis -90 -45 1.62303e-014   XYZ
    dof rx rz
    limits (-45.0 45.0)
           (-45.0 45.0)
  end
:hierarchy
  begin
    root lhipjoint rhipjoint lowerback
    lhipjoint lfemur
    lfemur ltibia
    ltibia lfoot
    lfoot ltoes
    rhipjoint rfemur
    rfemur rtibia
    rtibia rfoot
    rfoot rtoes
    lowerback upperback
    upperback thorax
    thorax lowerneck lclavicle rclavicle
    lowerneck upperneck
    upperneck head
    lclavicle lhumerus
    lhumerus lradius
    lradius lwrist
    lwrist lhand lthumb
    lhand lfingers
    rclavicle rhumerus
    rhumerus rradius
    rradius rwrist
    rwrist rhand rthumb
    rhand rfingers
  end

#!OML:ASF X:\für Bonn\!DataBase\2005_08_11_Bastian_Final\c3d\Bastian.ASF
:FULLY-SPECIFIED
:DEGREES
16
root 0.573261 17.075 0.610637 155.691 -17.1928 -176.562
lowerback 20.8123 -3.70517 -1.44289
upperback 12.1147 -7.66004 1.1766
thorax 1.97548 -5.07193 3.41526
lowerneck -6.83113 -7.98761 -5.78812
upperneck -3.50534 -10.5501 8.90423
head 0.919045 -5.30331 3.51904
rclavicle 8.46326e-014 -3.33958e-014
rhumerus -28.36 42.7205 -93.089
rradius 37.1327
rwrist -21.2008
rhand -40.9113 7.373
rfingers 7.12502
rthumb -13.8462 -22.1461
lclavicle 8.46326e-014 -3.33958e-014
lhumerus 26.2453 -29.2497 84.5457
lradius 92.449
lwrist -10.9566
lhand -50.4683 -18.5192
lfingers 7.12502
lthumb -23.0385 10.1238
rfemur -32.3232 3.99811 21.6865
rtibia 95.2723
rfoot 18.4301 -3.69691
rtoes -16.0502
lfemur 12.4956 -4.59705 -19.456
ltibia 31.2155
lfoot -12.1161 -6.93508
ltoes -2.75521
17
root 0.56699 17.068 0.635045 155.056 -17.1139 -176.453
lowerback 21.7803 -3.72499 -1.62162
upperback 12.3915 -7.90047 1.34427
thorax 1.87753 -5.28938 3.81924
lowerneck -6.94962 -8.22901 -5.8233
upperneck -3.57104 -10.2941 8.90739
head 0.90797 -4.88319 3.53906
rclavicle 1.41137e-014 -1.41137e-014
rhumerus -29.0976 43.3611 -93.8857
rradius 35.552
rwrist -21.3962
rhand -40.3109 6.61052
rfingers 7.12502
rthumb -13.2674 -22.9472
lclavicle 1.41137e-014 -1.41137e-014
lhumerus 28.3389 -28.9266 84.1377
lradius 93.7016
lwrist -10.9028
lhand -50.5819 -19.3961
lfingers 7.12502
lthumb -23.1475 9.23321
rfemur -34.2906 4.9028 22.1814
rtibia 98.0975
rfoot 17.8241 -4.35602
rtoes -15.1086
lfemur 13.0628 -4.55612 -19.4485
ltibia 31.176
lfoot -12.0115 -6.76903
ltoes -2.91844
18
root 0.560383 17.0611 0.6579 154.409 -17.0256 -176.284
lowerback 22.7122 -3.75799 -1.71408
upperback 12.6752 -8.1527 1.51532
thorax 1.806 -5.51295 4.18188
lowerneck -7.05136 -8.08935 -5.86392
upperneck -3.69252 -10.0858 8.87396
head 0.870511 -4.77554 3.54495
rclavicle -1.37559e-013 7.51406e-014
rhumerus -29.8817 44.1002 -94.7386
rradius 34.1856
rwrist -22.0754
rhand -39.7267 6.02959
rfingers 7.12502
rthumb -12.7043 -23.564
lclavicle -1.37559e-013 7.51406e-014
lhumerus 30.3486 -28.6112 83.7642
lradius 94.9682
lwrist -10.8838
lhand -50.6807 -20.1369
lfingers 7.12502
lthumb -23.2423 8.4805
rfemur -36.3183 5.68175 22.7568
rtibia 100.913
rfoot 17.2176 -5.13456
rtoes -14.4412
lfemur 13.6231 -4.42411 -19.3375
ltibia 31.1523
lfoot -11.9247 -6.65527
ltoes -3.47154
19
root 0.552075 17.0546 0.68103 153.722 -16.9604 -176.115
lowerback 23.6719 -3.80935 -1.74636
upperback 12.9744 -8.43456 1.67707
thorax 1.74244 -5.75566 4.51448
lowerneck -7.22123 -7.94613 -5.97983
upperneck -3.7805 -9.86592 8.86161
head 0.860797 -4.65883 3.56927
rclavicle 1.71949e-014 1.49089e-014
rhumerus -30.6569 44.8412 -95.5548
rradius 33.0783
rwrist -23.1478
rhand -39.2396 5.59722
rfingers 7.12502
rthumb -12.2347 -24.0249
lclavicle 1.71949e-014 1.49089e-014
lhumerus 32.2424 -28.2849 83.4564
lradius 96.2748
lwrist -10.9508
lhand -50.7635 -20.8103
lfingers 7.12502
lthumb -23.3217 7.79703
rfemur -38.331 6.29803 23.3367
rtibia 103.716
rfoot 16.6921 -5.90959
rtoes -14.145
lfemur 14.2196 -4.26858 -19.2206
ltibia 31.129
lfoot -11.8388 -6.56295
ltoes -4.02585
20
root 0.541986 17.0484 0.703457 153.039 -16.9108 -175.946
lowerback 24.6223 -3.88491 -1.71789
upperback 13.2563 -8.73502 1.80444
thorax 1.66194 -6.00238 4.78738
lowerneck -7.31771 -7.80613 -6.11632
upperneck -3.90572 -9.64953 8.89738
head 0.830452 -4.54494 3.61738
rclavicle 6.02318e-014 -2.82274e-014
rhumerus -31.5386 45.6392 -96.4947
rradius 32.201
rwrist -24.6671
rhand -38.9026 5.24638
rfingers 7.12502
rthumb -11.9097 -24.3949
lclavicle 6.02318e-014 -2.82274e-014
lhumerus 33.9594 -27.9926 83.1765
lradius 97.5896
lwrist -11.1301
lhand -50.912 -21.3126
lfingers 7.12502
lthumb -23.4642 7.27663
rfemur -40.326 6.81307 23.9376
rtibia 106.474
rfoot 16.2848 -6.61794
rtoes -14.1587
lfemur 14.8099 -4.08862 -19.1032
ltibia 31.1249
lfoot -11.7648 -6.47016
ltoes -4.78134
21
root 0.530634 17.0414 0.726975 152.325 -16.8583 -175.722
lowerback 25.6112 -3.99242 -1.62315
upperback 13.5199 -9.07055 1.958
thorax 1.55232 -6.26777 5.07258
lowerneck -7.39972 -7.6527 -6.32425
upperneck -4.02718 -9.41224 8.91486
head 0.79959 -4.42096 3.67428
rclavicle -4.12478e-014 5.56597e-015
rhumerus -32.4712 46.3129 -97.3749
rradius 31.5966
rwrist -26.373
rhand -38.6121 4.91437
rfingers 7.12502
rthumb -11.6296 -24.7429
lclavicle -4.12478e-014 5.56597e-015
lhumerus 35.572 -27.6667 82.9335
lradius 98.8483
lwrist -11.4078
lhand -51.1433 -21.7627
lfingers 7.12502
lthumb -23.686 6.79793
rfemur -42.3108 7.27259 24.6308
rtibia 109.148
rfoot 15.9099 -7.32666
rtoes -14.1075
lfemur 15.4007 -3.9045 -18.9133
ltibia 31.1399
lfoot -11.6469 -6.42803
ltoes -5.18971
22
root 0.519701 17.0327 0.75211 151.584 -16.8121 -175.481
lowerback 26.6585 -4.11224 -1.50762
upperback 13.7768 -9.42696 2.10905
thorax 1.41815 -6.54744 5.3645
lowerneck -7.54269 -7.49407 -6.53492
upperneck -4.10642 -9.16657 8.92268
head 0.791423 -4.29094 3.72623
rclavicle -2.48481e-015 4.25399e-014
rhumerus -33.3121 46.6697 -98.1361
rradius 31.1344
rwrist -27.9784
rhand -38.4024 4.67938
rfingers 7.12502
rthumb -11.4274 -24.9892
lclavicle -2.48481e-015 4.25399e-014
lhumerus 37.1494 -27.3235 82.6079
lradius 100.083
lwrist -11.7571
lhand -51.4382 -22.0232
lfingers 7.12502
lthumb -23.9689 6.50058
rfemur -44.3044 7.69699 25.3705
rtibia 111.719
rfoot 15.4615 -7.90765
rtoes -13.6605
lfemur 15.9776 -3.71788 -18.6895
ltibia 31.2168
lfoot -11.4987 -6.43325
ltoes -5.26654
23
root 0.507709 17.0225 0.778536 150.844 -16.7681 -175.225
lowerback 27.7451 -4.26404 -1.35014
upperback 14.0005 -9.81101 2.24384
thorax 1.23356 -6.83613 5.64053
lowerneck -7.643 -7.31139 -6.76988
upperneck -4.20013 -8.88757 8.96992
head 0.771416 -4.14462 3.80044
rclavicle 1.14102e-013 -5.725e-014
rhumerus -34.2426 47.0186 -98.9449
rradius 30.8641
rwrist -29.6557
rhand -38.3135 4.39441
rfingers 7.12502
rthumb -11.3416 -25.2789
lclavicle 1.14102e-013 -5.725e-014
lhumerus 38.6212 -26.9089 82.3283
lradius 101.284
lwrist -12.1806
lhand -51.7222 -22.1688
lfingers 7.12502
lthumb -24.2411 6.31884
rfemur -46.3413 8.01115 26.1226
rtibia 114.161
rfoot 14.9465 -8.29911
rtoes -12.6046
lfemur 16.5023 -3.51856 -18.4269
ltibia 31.381
lfoot -11.3954 -6.51116
ltoes -4.89693
24
root 0.495821 17.0059 0.809555 150.077 -16.7138 -174.928
lowerback 28.9245 -4.43352 -1.1524
upperback 14.197 -10.2135 2.40544
thorax 0.990302 -7.13652 5.95512
lowerneck -7.77579 -7.12528 -7.03011
upperneck -4.26575 -8.60252 8.96382
head 0.76304 -3.99506 3.86014
rclavicle 7.77248e-014 -3.81667e-014
rhumerus -35.0859 47.208 -99.6106
rradius 30.6844
rwrist -31.0703
rhand -38.3316 4.02267
rfingers 7.12502
rthumb -11.3591 -25.6497
lclavicle 7.77248e-014 -3.81667e-014
lhumerus 40.0416 -26.4477 81.8753
lradius 102.498
lwrist -12.5886
lhand -52.1042 -22.2734
lfingers 7.12502
lthumb -24.6074 6.16493
rfemur -48.3898 8.16894 26.9255
rtibia 116.482
rfoot 14.4719 -8.46497
rtoes -11.6791
lfemur 16.9718 -3.34192 -18.1053
ltibia 31.6645
lfoot -11.3632 -6.63496
ltoes -4.24409
25
root 0.483072 16.983 0.842044 149.267 -16.6656 -174.649
lowerback 30.1972 -4.61116 -0.920199
upperback 14.3706 -10.6154 2.53486
thorax 0.680767 -7.43301 6.24518
lowerneck -7.87099 -6.94121 -7.28993
upperneck -4.31918 -8.32388 8.97875
head 0.752943 -3.84987 3.92827
rclavicle -5.34731e-014 3.4191e-014
rhumerus -35.8898 47.2103 -100.208
rradius 30.5616
rwrist -32.1955
rhand -38.3601 3.6872
rfingers 7.12502
rthumb -11.3866 -25.9836
lclavicle -5.34731e-014 3.4191e-014
lhumerus 41.2962 -26.0233 81.4392
lradius 103.726
lwrist -13.0704
lhand -52.469 -22.3666
lfingers 7.12502
lthumb -24.957 6.0236
rfemur -50.4594 8.16257 27.7104
rtibia 118.71
rfoot 14.1015 -8.36616
rtoes -11.093
lfemur 17.431 -3.15556 -17.793
ltibia 32.0654
lfoot -11.3824 -6.81087
ltoes -3.13859
26
root 0.469656 16.9543 0.873288 148.442 -16.6131 -174.385
lowerback 31.7862 -4.78478 -0.650863
upperback 14.3837 -11.0333 2.89423
thorax 0.187119 -7.7303 6.37394
lowerneck -7.93262 -6.7677 -7.58303
upperneck -4.43158 -8.05304 9.00339
head 0.71959 -3.70782 4.00806
rclavicle 7.31528e-014 -4.81059e-014
rhumerus -36.5685 47.0162 -100.637
rradius 30.4698
rwrist -32.9704
rhand -38.3924 3.42329
rfingers 7.12502
rthumb -11.4177 -26.2458
lclavicle 7.31528e-014 -4.81059e-014
lhumerus 42.4752 -25.5789 80.9912
lradius 104.946
lwrist -13.5664
lhand -52.7685 -22.4149
lfingers 7.12502
lthumb -25.244 5.9352
rfemur -52.5772 8.05098 28.511
rtibia 120.873
rfoot 13.7975 -8.09537
rtoes -10.7393
lfemur 17.8448 -2.95935 -17.4773
ltibia 32.6082
lfoot -11.4672 -7.02627
ltoes -1.89808
